<?xml version="1.0" encoding="UTF-8" standalone="no"?>
<!DOCTYPE svg PUBLIC "-//W3C//DTD SVG 1.1//EN" "http://www.w3.org/Graphics/SVG/1.1/DTD/svg11.dtd">
<svg width="100%" height="100%" viewBox="0 0 974 283" version="1.1" xmlns="http://www.w3.org/2000/svg" xmlns:xlink="http://www.w3.org/1999/xlink" xml:space="preserve" xmlns:serif="http://www.serif.com/" style="fill-rule:evenodd;clip-rule:evenodd;stroke-linejoin:round;stroke-miterlimit:2;">
    <g transform="matrix(1,0,0,1,-2796.3,-1585.57)">
        <g transform="matrix(1,0,0,1,-5765.57,-5992.57)">
            <g transform="matrix(1,0,0,1,31.8756,1240.15)">
                <g transform="matrix(0.420794,0,0,0.420794,8932.93,6316.21)">
                    <path d="M-52.285,364.359L-119.874,364.359L-119.874,305.585L79.956,305.585L79.956,364.359L12.366,364.359L12.366,717L-52.285,717L-52.285,364.359Z" style="fill:white;fill-rule:nonzero;"/>
                    <rect x="111.106" y="305.585" width="64.651" height="411.415" style="fill:white;fill-rule:nonzero;"/>
                    <path d="M223.951,305.585L288.602,305.585L288.602,478.967L370.885,305.585L435.536,305.585L358.542,456.633L436.711,717L369.122,717L314.462,533.627L288.602,585.935L288.602,717L223.951,717L223.951,305.585Z" style="fill:white;fill-rule:nonzero;"/>
                    <path d="M517.231,305.585L604.803,305.585L671.805,717L607.154,717L595.4,635.305L595.4,636.48L521.933,636.48L510.178,717L450.229,717L517.231,305.585ZM587.759,580.645L558.96,377.289L557.785,377.289L529.573,580.645L587.759,580.645Z" style="fill:white;fill-rule:nonzero;"/>
                    <path d="M785.238,722.877C753.892,722.877 730.187,713.963 714.122,696.135C698.058,678.307 690.025,652.741 690.025,619.436L690.025,595.926L751.15,595.926L751.15,624.138C751.15,650.782 762.317,664.104 784.651,664.104C795.622,664.104 803.948,660.871 809.629,654.406C815.311,647.941 818.151,637.46 818.151,622.962C818.151,605.722 814.233,590.539 806.397,577.413C798.56,564.287 784.063,548.516 762.904,530.1C736.26,506.591 717.649,485.334 707.069,466.331C696.49,447.327 691.201,425.875 691.201,401.974C691.201,369.452 699.429,344.278 715.885,326.45C732.342,308.622 756.243,299.708 787.589,299.708C818.543,299.708 841.955,308.622 857.824,326.45C873.692,344.278 881.627,369.844 881.627,403.149L881.627,420.194L820.502,420.194L820.502,399.035C820.502,384.929 817.76,374.644 812.274,368.179C806.789,361.714 798.756,358.481 788.177,358.481C766.627,358.481 755.852,371.607 755.852,397.86C755.852,412.749 759.868,426.659 767.9,439.589C775.932,452.519 790.528,468.192 811.686,486.608C838.722,510.117 857.334,531.471 867.521,550.671C877.709,569.87 882.802,592.4 882.802,618.26C882.802,651.957 874.476,677.818 857.824,695.842C841.171,713.865 816.976,722.877 785.238,722.877Z" style="fill:white;fill-rule:nonzero;"/>
                    <path d="M919.83,305.585L984.481,305.585L984.481,473.09L1053.83,473.09L1053.83,305.585L1118.48,305.585L1118.48,717L1053.83,717L1053.83,531.863L984.481,531.863L984.481,717L919.83,717L919.83,305.585Z" style="fill:white;fill-rule:nonzero;"/>
                    <path d="M1260.72,722.877C1229.37,722.877 1205.47,713.963 1189.01,696.135C1172.56,678.307 1164.33,652.741 1164.33,619.436L1164.33,305.585L1228.98,305.585L1228.98,624.138C1228.98,638.243 1231.82,648.431 1237.5,654.7C1243.18,660.969 1251.31,664.104 1261.89,664.104C1272.47,664.104 1280.6,660.969 1286.28,654.7C1291.96,648.431 1294.81,638.243 1294.81,624.138L1294.81,305.585L1357.11,305.585L1357.11,619.436C1357.11,652.741 1348.88,678.307 1332.42,696.135C1315.96,713.963 1292.06,722.877 1260.72,722.877Z" style="fill:white;fill-rule:nonzero;"/>
                </g>
                <g transform="matrix(0.906282,0,0,0.906282,8476.35,6017.99)">
                    <path d="M131.883,504.233C132.582,504.045 133.285,503.877 133.993,503.73C127.591,476.219 119.501,454.249 104.636,439.963C102.464,439.761 97.382,440.564 94.347,439.151C86.294,435.4 84.547,425.335 89.353,423.151C93.001,421.494 97.924,421.963 101.783,425.593C117.071,439.976 131.876,467.609 139.153,503.03C144.724,502.67 150.428,503.569 155.831,505.846C156.093,503.381 156.604,500.931 157.368,498.534L185.073,411.578C199.151,367.391 246.386,342.983 290.574,357.062C333.989,370.894 358.31,416.734 345.794,460.243C352.859,458.566 360.216,458.038 367.582,458.745C385.324,460.448 401.649,469.175 412.92,482.982L413.335,483.491C435.911,511.147 432.007,551.825 404.584,574.683L359.725,612.076C370.042,622.334 399.544,649.974 397.225,662.106C395.124,673.097 243.151,646.015 217.22,638.479C171.323,625.142 104.372,569.477 101.141,559.192C97.909,548.906 99.33,537.723 105.032,528.572L110.142,520.371C114.354,513.61 120.423,508.655 127.303,505.795C114.045,482.816 100.157,465.433 81.168,458.426C79.097,459.111 74.762,461.871 71.415,461.802C61.079,461.591 56.902,453.068 60.431,449.142C63.11,446.162 67.748,445.802 72.798,447.402C92.423,453.617 115.042,470.513 131.883,504.233ZM139.629,521.768C131.472,521.768 124.85,529.225 124.85,538.409C124.85,547.594 131.472,555.051 139.629,555.051C147.786,555.051 154.408,547.594 154.408,538.409C154.408,529.225 147.786,521.768 139.629,521.768Z" style="fill:white;"/>
                </g>
            </g>
        </g>
    </g>
</svg>
